<mxfile host="app.diagrams.net" modified="2021-10-09T21:42:09.824Z" agent="5.0 (X11; Linux x86_64) AppleWebKit/537.36 (KHTML, like Gecko) Chrome/94.0.4606.71 Safari/537.36" etag="rtRA2CdsGjhGcik1t3s1" version="15.5.0" type="github">
  <diagram id="9fJ1YfTiBP8oMONmwn__" name="Page-1">
    <mxGraphModel dx="962" dy="580" grid="1" gridSize="10" guides="1" tooltips="1" connect="1" arrows="1" fold="1" page="1" pageScale="1" pageWidth="827" pageHeight="1169" math="0" shadow="0">
      <root>
        <mxCell id="0" />
        <mxCell id="1" parent="0" />
        <mxCell id="3WdZv8WioKGqOxXXPEbm-1" value="Seller Login" style="rounded=1;whiteSpace=wrap;html=1;" vertex="1" parent="1">
          <mxGeometry x="50" y="30" width="150" height="50" as="geometry" />
        </mxCell>
        <mxCell id="3WdZv8WioKGqOxXXPEbm-3" value="Seller Register" style="rounded=1;whiteSpace=wrap;html=1;" vertex="1" parent="1">
          <mxGeometry x="290" y="30" width="150" height="50" as="geometry" />
        </mxCell>
      </root>
    </mxGraphModel>
  </diagram>
</mxfile>
